<?xml version="1.0" standalone="no"?>
<!DOCTYPE svg PUBLIC "-//W3C//DTD SVG 20010904//EN"
 "http://www.w3.org/TR/2001/REC-SVG-20010904/DTD/svg10.dtd">
<svg version="1.0" xmlns="http://www.w3.org/2000/svg"
 width="814.000000pt" height="814.000000pt" viewBox="0 0 814.000000 814.000000"
 preserveAspectRatio="xMidYMid meet">
<metadata>
Created by potrace 1.11, written by Peter Selinger 2001-2013
</metadata>
<g transform="translate(0.000000,814.000000) scale(0.100000,-0.100000)"
fill="#000000" stroke="none">
<path d="M4182 5555 c1 -1419 3 -2585 6 -2592 2 -6 21 -19 43 -27 45 -18 129
-91 129 -112 0 -8 4 -14 9 -14 29 0 64 -214 40 -246 -5 -6 -10 -20 -12 -31 -5
-37 -94 -153 -117 -153 -5 0 -15 -6 -23 -14 -35 -35 -192 -55 -252 -31 -103
40 -143 72 -192 156 -58 100 -48 255 23 341 12 15 24 31 26 35 5 11 57 47 105
71 l41 22 2 312 c2 432 7 1830 14 3473 3 775 2 1371 -3 1360 -8 -17 -116 -342
-124 -370 -7 -27 -68 -179 -140 -350 -82 -196 -315 -676 -338 -695 -3 -3 -23
-36 -43 -75 -55 -101 -199 -339 -208 -343 -5 -2 -8 -8 -8 -14 0 -9 -136 -229
-163 -263 -16 -21 -296 -465 -347 -550 -29 -49 -60 -98 -68 -107 -8 -10 -12
-18 -8 -18 4 0 0 -7 -8 -16 -9 -8 -16 -21 -16 -29 0 -7 -3 -15 -7 -17 -8 -3
-35 -53 -124 -231 -42 -83 -67 -135 -74 -157 -1 -3 -11 -25 -22 -50 -44 -99
-108 -287 -120 -349 -2 -13 -9 -33 -14 -43 -6 -11 -8 -22 -5 -25 2 -3 0 -17
-6 -32 -5 -14 -11 -35 -13 -46 -3 -18 -6 -39 -20 -105 -3 -14 -8 -45 -11 -70
-3 -25 -8 -54 -10 -65 -28 -145 -21 -661 12 -825 3 -14 7 -41 9 -60 2 -19 6
-44 9 -55 17 -75 26 -114 31 -142 3 -18 10 -44 15 -59 15 -39 6 -40 -37 -6
-86 68 -237 132 -347 148 -101 14 -221 -1 -306 -39 -25 -11 -47 -21 -50 -21
-3 -1 -18 -10 -35 -21 -143 -92 -242 -236 -281 -406 -19 -83 -24 -221 -12
-289 5 -25 11 -57 13 -72 2 -14 8 -36 15 -47 6 -12 8 -21 6 -21 -8 0 39 -120
75 -191 31 -60 112 -188 148 -231 96 -118 188 -209 326 -326 29 -24 46 -25 51
-1 12 61 18 84 44 159 120 359 315 547 565 544 93 -2 127 -8 210 -36 72 -25
206 -96 270 -143 119 -89 143 -108 215 -174 l65 -61 965 1 965 0 51 47 c70 65
103 93 149 127 22 17 42 33 45 36 12 14 150 97 205 124 33 15 67 31 77 36 37
18 148 41 214 44 127 6 243 -39 342 -134 112 -106 199 -269 256 -476 38 -140
34 -129 50 -113 8 7 36 31 63 53 97 80 260 253 323 343 106 151 189 326 206
437 3 17 7 37 11 45 11 30 13 217 2 275 -19 110 -77 242 -136 312 -43 51 -51
59 -79 83 -29 25 -110 80 -118 80 -2 0 -21 8 -42 17 -47 20 -47 20 -109 33
-88 19 -281 5 -309 -21 -6 -5 -17 -9 -26 -9 -21 0 -143 -64 -202 -105 -51 -37
-62 -36 -46 4 15 39 54 220 63 296 3 22 7 51 10 65 12 58 18 199 19 405 1 219
-3 283 -29 460 -9 66 -11 75 -35 180 -11 50 -23 101 -26 114 -8 37 -83 262
-99 296 -7 17 -22 53 -33 80 -25 62 -132 288 -141 295 -3 3 -18 30 -33 60 -15
30 -43 82 -63 115 -19 33 -41 72 -47 88 -7 15 -16 27 -20 27 -4 0 -8 7 -8 15
0 8 -4 15 -9 15 -5 0 -11 8 -14 18 -6 18 -19 38 -107 177 -30 48 -66 106 -79
129 -13 22 -27 43 -30 46 -3 3 -11 14 -18 25 -49 84 -188 301 -195 303 -4 2
-8 7 -8 12 0 4 -33 62 -73 127 -69 112 -193 326 -264 458 -37 67 -212 420
-235 475 -114 261 -201 487 -273 710 -21 63 -43 133 -51 155 -11 33 -13 -384
-12 -2540z"/>
<path d="M3139 1530 c-4 -22 -3 -343 1 -349 6 -8 1920 -9 1921 -1 4 25 3 350
-1 351 -16 5 -1920 4 -1921 -1z"/>
<path d="M3147 1001 c-14 -5 -33 -25 -97 -102 -24 -30 -48 -55 -52 -57 -5 -2
-8 -10 -8 -17 0 -7 -4 -15 -9 -17 -7 -2 -103 -115 -279 -327 -21 -24 -57 -67
-81 -94 l-43 -50 98 -40 c55 -21 104 -40 109 -41 9 -2 194 -60 235 -74 8 -3
20 -6 25 -7 6 -2 30 -8 55 -15 25 -7 56 -14 70 -17 14 -2 41 -8 60 -13 88 -23
254 -52 370 -65 25 -3 59 -7 75 -9 274 -37 753 -23 1055 30 47 8 99 17 115 19
17 3 39 7 50 9 196 46 250 60 323 83 48 15 89 28 92 28 21 3 147 49 154 56 6
5 16 9 24 9 7 0 32 8 55 19 23 10 50 21 60 25 17 6 17 9 -10 40 -15 18 -37 44
-48 57 -11 13 -47 56 -80 95 -33 39 -79 93 -102 120 -23 27 -50 59 -60 70 -10
12 -34 41 -53 64 -19 23 -43 52 -53 64 -10 11 -37 43 -60 70 -23 28 -51 59
-62 70 -20 21 -23 21 -968 21 -521 0 -953 -2 -960 -4z"/>
</g>
</svg>
